<?xml version="1.0" encoding="iso-8859-1"?>
<!-- Generator: Adobe Illustrator 19.0.0, SVG Export Plug-In . SVG Version: 6.00 Build 0)  -->
<svg version="1.1" id="Capa_1" xmlns="http://www.w3.org/2000/svg" xmlns:xlink="http://www.w3.org/1999/xlink" x="0px" y="0px"
	 viewBox="0 0 56 56" style="enable-background:new 0 0 56 56;" xml:space="preserve">
<circle style="fill:#0096E6;" cx="28" cy="28" r="28"/>
<path style="fill:#EDEDED;" d="M8,26c-0.256,0-0.512-0.098-0.707-0.293c-0.391-0.391-0.391-1.023,0-1.414l6.731-6.731
	c1.089-1.09,2.861-1.09,3.951,0l5.463,5.463c0.31,0.309,0.813,0.31,1.123,0l5.463-5.463c1.089-1.09,2.861-1.09,3.951,0l5.463,5.463
	c0.31,0.309,0.813,0.31,1.123,0l6.731-6.731c0.391-0.391,1.023-0.391,1.414,0s0.391,1.023,0,1.414l-6.731,6.731
	c-1.089,1.09-2.861,1.09-3.951,0l-5.463-5.463c-0.309-0.308-0.813-0.308-1.123,0l-5.463,5.463c-1.089,1.09-2.861,1.09-3.951,0
	l-5.463-5.463c-0.309-0.308-0.813-0.308-1.123,0l-6.731,6.731C8.512,25.902,8.256,26,8,26z"/>
<path style="fill:#EDEDED;" d="M8,38c-0.256,0-0.512-0.098-0.707-0.293c-0.391-0.391-0.391-1.023,0-1.414l6.731-6.731
	c1.089-1.09,2.861-1.09,3.951,0l5.463,5.463c0.31,0.31,0.813,0.31,1.123,0l5.463-5.463c1.089-1.09,2.861-1.09,3.951,0l5.463,5.463
	c0.31,0.31,0.813,0.31,1.123,0l6.731-6.731c0.391-0.391,1.023-0.391,1.414,0s0.391,1.023,0,1.414l-6.731,6.731
	c-1.089,1.09-2.861,1.09-3.951,0l-5.463-5.463c-0.309-0.308-0.813-0.309-1.123,0l-5.463,5.463c-1.089,1.09-2.861,1.09-3.951,0
	l-5.463-5.463c-0.309-0.308-0.813-0.309-1.123,0l-6.731,6.731C8.512,37.902,8.256,38,8,38z"/>
<g>
</g>
<g>
</g>
<g>
</g>
<g>
</g>
<g>
</g>
<g>
</g>
<g>
</g>
<g>
</g>
<g>
</g>
<g>
</g>
<g>
</g>
<g>
</g>
<g>
</g>
<g>
</g>
<g>
</g>
</svg>
