<?xml version="1.0" encoding="iso-8859-1"?>
<!-- Generator: Adobe Illustrator 19.0.0, SVG Export Plug-In . SVG Version: 6.00 Build 0)  -->
<svg version="1.1" id="Capa_1" xmlns="http://www.w3.org/2000/svg" xmlns:xlink="http://www.w3.org/1999/xlink" x="0px" y="0px"
	 viewBox="0 0 56 56" style="enable-background:new 0 0 56 56;" xml:space="preserve">
<circle style="fill:#D25627;" cx="28" cy="28" r="28"/>
<path style="fill:#EDEDED;" d="M28,23c-0.552,0-1-0.447-1-1c0-4.963-4.038-9-9-9s-9,4.037-9,9c0,0.553-0.448,1-1,1s-1-0.447-1-1
	c0-6.065,4.935-11,11-11s11,4.935,11,11C29,22.553,28.552,23,28,23z"/>
<path style="fill:#EDEDED;" d="M48,23c-0.552,0-1-0.447-1-1c0-4.963-4.038-9-9-9s-9,4.037-9,9c0,0.553-0.448,1-1,1s-1-0.447-1-1
	c0-6.065,4.935-11,11-11s11,4.935,11,11C49,22.553,48.552,23,48,23z"/>
<path style="fill:#EDEDED;" d="M28,49c-0.552,0-1-0.447-1-1V22c0-0.553,0.448-1,1-1s1,0.447,1,1v26C29,48.553,28.552,49,28,49z"/>
<g>
</g>
<g>
</g>
<g>
</g>
<g>
</g>
<g>
</g>
<g>
</g>
<g>
</g>
<g>
</g>
<g>
</g>
<g>
</g>
<g>
</g>
<g>
</g>
<g>
</g>
<g>
</g>
<g>
</g>
</svg>
