<?xml version="1.0" encoding="iso-8859-1"?>
<!-- Generator: Adobe Illustrator 19.0.0, SVG Export Plug-In . SVG Version: 6.00 Build 0)  -->
<svg version="1.1" id="Capa_1" xmlns="http://www.w3.org/2000/svg" xmlns:xlink="http://www.w3.org/1999/xlink" x="0px" y="0px"
	 viewBox="0 0 56 56" style="enable-background:new 0 0 56 56;" xml:space="preserve">
<circle style="fill:#F29C1F;" cx="28" cy="28" r="28"/>
<path style="fill:#EDEDED;" d="M37.5,32c-4.136,0-7.5-3.364-7.5-7.5s3.364-7.5,7.5-7.5s7.5,3.364,7.5,7.5S41.636,32,37.5,32z
	 M37.5,19c-3.033,0-5.5,2.468-5.5,5.5s2.467,5.5,5.5,5.5s5.5-2.468,5.5-5.5S40.533,19,37.5,19z"/>
<path style="fill:#EDEDED;" d="M18.5,40c-4.136,0-7.5-3.364-7.5-7.5s3.364-7.5,7.5-7.5s7.5,3.364,7.5,7.5S22.636,40,18.5,40z
	 M18.5,27c-3.033,0-5.5,2.468-5.5,5.5s2.467,5.5,5.5,5.5s5.5-2.468,5.5-5.5S21.533,27,18.5,27z"/>
<path style="fill:#EDEDED;" d="M44,25c-0.552,0-1-0.447-1-1c0-3.794-5.953-7-13-7c-7.553,0-16,2.566-16,6c0,0.553-0.448,1-1,1
	s-1-0.447-1-1c0-5.518,10.526-8,18-8c8.411,0,15,3.953,15,9C45,24.553,44.552,25,44,25z"/>
<path style="fill:#EDEDED;" d="M26,42c-8.411,0-15-3.953-15-9c0-0.553,0.448-1,1-1s1,0.447,1,1c0,3.794,5.953,7,13,7
	c7.553,0,16-2.566,16-6c0-0.553,0.448-1,1-1s1,0.447,1,1C44,39.518,33.474,42,26,42z"/>
<g>
</g>
<g>
</g>
<g>
</g>
<g>
</g>
<g>
</g>
<g>
</g>
<g>
</g>
<g>
</g>
<g>
</g>
<g>
</g>
<g>
</g>
<g>
</g>
<g>
</g>
<g>
</g>
<g>
</g>
</svg>
