<?xml version="1.0" encoding="iso-8859-1"?>
<!-- Generator: Adobe Illustrator 19.0.0, SVG Export Plug-In . SVG Version: 6.00 Build 0)  -->
<svg version="1.1" id="Capa_1" xmlns="http://www.w3.org/2000/svg" xmlns:xlink="http://www.w3.org/1999/xlink" x="0px" y="0px"
	 viewBox="0 0 56 56" style="enable-background:new 0 0 56 56;" xml:space="preserve">
<circle style="fill:#B49ACA;" cx="28" cy="28" r="28"/>
<path style="fill:#EDEDED;" d="M22,38c-0.553,0-1-0.447-1-1V18c0-2.541-2.032-4.385-4.833-4.385C13.627,13.615,11,15.255,11,18
	c0,0.553-0.447,1-1,1s-1-0.447-1-1c0-3.58,3.148-6.385,7.167-6.385C20.063,11.615,23,14.36,23,18v19C23,37.553,22.553,38,22,38z"/>
<path style="fill:#EDEDED;" d="M34,38c-0.553,0-1-0.447-1-1V18c0-2.541-2.032-4.385-4.833-4.385C25.627,13.615,23,15.255,23,18
	c0,0.553-0.447,1-1,1s-1-0.447-1-1c0-3.58,3.148-6.385,7.167-6.385C32.063,11.615,35,14.36,35,18v19C35,37.553,34.553,38,34,38z"/>
<path style="fill:#EDEDED;" d="M40,44c-3.859,0-7-3.141-7-7s3.141-7,7-7s7,3.141,7,7S43.859,44,40,44z M40,32c-2.757,0-5,2.243-5,5
	s2.243,5,5,5s5-2.243,5-5S42.757,32,40,32z"/>
<path style="fill:#EDEDED;" d="M24,46c-0.553,0-1-0.447-1-1s0.447-1,1-1c8.123,0,9-4.896,9-7c0-0.553,0.447-1,1-1s1,0.447,1,1
	C35,41.351,32.11,46,24,46z"/>
<g>
</g>
<g>
</g>
<g>
</g>
<g>
</g>
<g>
</g>
<g>
</g>
<g>
</g>
<g>
</g>
<g>
</g>
<g>
</g>
<g>
</g>
<g>
</g>
<g>
</g>
<g>
</g>
<g>
</g>
</svg>
