<?xml version="1.0" encoding="iso-8859-1"?>
<!-- Generator: Adobe Illustrator 19.0.0, SVG Export Plug-In . SVG Version: 6.00 Build 0)  -->
<svg version="1.1" id="Capa_1" xmlns="http://www.w3.org/2000/svg" xmlns:xlink="http://www.w3.org/1999/xlink" x="0px" y="0px"
	 viewBox="0 0 56 56" style="enable-background:new 0 0 56 56;" xml:space="preserve">
<circle style="fill:#E57E25;" cx="28" cy="28" r="28"/>
<path style="fill:#EDEDED;" d="M19,42c-4.136,0-7.5-3.364-7.5-7.5S14.864,27,19,27s7.5,3.364,7.5,7.5S23.136,42,19,42z M19,29
	c-3.033,0-5.5,2.468-5.5,5.5S15.967,40,19,40s5.5-2.468,5.5-5.5S22.033,29,19,29z"/>
<path style="fill:#EDEDED;" d="M37.5,42.5l-0.148-0.001c-2.705-0.044-5.094-1.623-6.229-4.121c-1.184-2.606-0.776-5.578,1.065-7.755
	c1.36-1.608,2.564-3.598,3.579-5.913c1.111-2.534,0.927-5.467-0.493-7.845c-1.333-2.233-3.548-3.632-6.076-3.837
	C28.969,13.01,28.735,13,28.5,13c-4.846,0-8.5,3.439-8.5,8v7c0,0.553-0.448,1-1,1s-1-0.447-1-1v-7c0-5.701,4.514-10,10.5-10
	c0.289,0,0.575,0.012,0.859,0.034c3.182,0.259,5.964,2.01,7.633,4.806c1.75,2.933,1.978,6.549,0.607,9.673
	c-1.093,2.492-2.399,4.646-3.883,6.401c-1.337,1.581-1.632,3.741-0.771,5.637c0.824,1.814,2.486,2.916,4.447,2.948L37.5,40.5
	c3.584,0,6.5-2.916,6.5-6.5c0-0.553,0.448-1,1-1c0.553,0,1,0.447,1,1C46,38.687,42.187,42.5,37.5,42.5z"/>
<g>
</g>
<g>
</g>
<g>
</g>
<g>
</g>
<g>
</g>
<g>
</g>
<g>
</g>
<g>
</g>
<g>
</g>
<g>
</g>
<g>
</g>
<g>
</g>
<g>
</g>
<g>
</g>
<g>
</g>
</svg>
