<?xml version="1.0" encoding="iso-8859-1"?>
<!-- Generator: Adobe Illustrator 19.0.0, SVG Export Plug-In . SVG Version: 6.00 Build 0)  -->
<svg version="1.1" id="Capa_1" xmlns="http://www.w3.org/2000/svg" xmlns:xlink="http://www.w3.org/1999/xlink" x="0px" y="0px"
	 viewBox="0 0 56 56" style="enable-background:new 0 0 56 56;" xml:space="preserve">
<circle style="fill:#F3D55B;" cx="28" cy="28" r="28"/>
<path style="fill:#FFFFFF;" d="M11,44c-0.552,0-1-0.447-1-1s0.448-1,1-1c7.72,0,14-6.28,14-14s-6.28-14-14-14c-0.552,0-1-0.447-1-1
	s0.448-1,1-1c8.822,0,16,7.178,16,16S19.822,44,11,44z"/>
<path style="fill:#FFFFFF;" d="M45,44c-8.822,0-16-7.178-16-16s7.178-16,16-16c0.552,0,1,0.447,1,1s-0.448,1-1,1
	c-7.72,0-14,6.28-14,14s6.28,14,14,14c0.552,0,1,0.447,1,1S45.552,44,45,44z"/>
<path style="fill:#FFFFFF;" d="M38,29H18c-0.552,0-1-0.447-1-1s0.448-1,1-1h20c0.552,0,1,0.447,1,1S38.552,29,38,29z"/>
<g>
</g>
<g>
</g>
<g>
</g>
<g>
</g>
<g>
</g>
<g>
</g>
<g>
</g>
<g>
</g>
<g>
</g>
<g>
</g>
<g>
</g>
<g>
</g>
<g>
</g>
<g>
</g>
<g>
</g>
</svg>
