<?xml version="1.0" encoding="iso-8859-1"?>
<!-- Generator: Adobe Illustrator 19.0.0, SVG Export Plug-In . SVG Version: 6.00 Build 0)  -->
<svg version="1.1" id="Capa_1" xmlns="http://www.w3.org/2000/svg" xmlns:xlink="http://www.w3.org/1999/xlink" x="0px" y="0px"
	 viewBox="0 0 56 56" style="enable-background:new 0 0 56 56;" xml:space="preserve">
<circle style="fill:#E64C3C;" cx="28" cy="28" r="28"/>
<path style="fill:#EDEDED;" d="M13.716,43.284c-0.256,0-0.512-0.098-0.707-0.293c-0.391-0.391-0.391-1.023,0-1.414l28.284-28.284
	c0.391-0.391,1.023-0.391,1.414,0s0.391,1.023,0,1.414L14.423,42.991C14.228,43.187,13.972,43.284,13.716,43.284z"/>
<path style="fill:#EDEDED;" d="M42,24.899c-0.553,0-1-0.447-1-1V15h-8.899c-0.553,0-1-0.447-1-1s0.447-1,1-1H43v10.899
	C43,24.452,42.553,24.899,42,24.899z"/>
<path style="fill:#EDEDED;" d="M33.515,33.385c-0.256,0-0.512-0.098-0.707-0.293l-9.899-9.899c-0.391-0.391-0.391-1.023,0-1.414
	s1.023-0.391,1.414,0l9.899,9.899c0.391,0.391,0.391,1.023,0,1.414C34.026,33.287,33.771,33.385,33.515,33.385z"/>
<g>
</g>
<g>
</g>
<g>
</g>
<g>
</g>
<g>
</g>
<g>
</g>
<g>
</g>
<g>
</g>
<g>
</g>
<g>
</g>
<g>
</g>
<g>
</g>
<g>
</g>
<g>
</g>
<g>
</g>
</svg>
