<?xml version="1.0" encoding="iso-8859-1"?>
<!-- Generator: Adobe Illustrator 19.0.0, SVG Export Plug-In . SVG Version: 6.00 Build 0)  -->
<svg version="1.1" id="Capa_1" xmlns="http://www.w3.org/2000/svg" xmlns:xlink="http://www.w3.org/1999/xlink" x="0px" y="0px"
	 viewBox="0 0 56 56" style="enable-background:new 0 0 56 56;" xml:space="preserve">
<circle style="fill:#AF8066;" cx="28" cy="28" r="28"/>
<path style="fill:#EDEDED;" d="M16,40c-0.553,0-1-0.447-1-1V20c0-2.541-2.032-4.385-4.833-4.385C7.627,15.615,5,17.255,5,20
	c0,0.553-0.447,1-1,1s-1-0.447-1-1c0-3.58,3.148-6.385,7.167-6.385C14.062,13.615,17,16.36,17,20v19C17,39.553,16.553,40,16,40z"/>
<path style="fill:#EDEDED;" d="M28,40c-0.553,0-1-0.447-1-1V20c0-2.541-2.032-4.385-4.833-4.385C19.627,15.615,17,17.255,17,20
	c0,0.553-0.447,1-1,1s-1-0.447-1-1c0-3.58,3.148-6.385,7.167-6.385C26.062,13.615,29,16.36,29,20v19C29,39.553,28.553,40,28,40z"/>
<path style="fill:#EDEDED;" d="M43,48c-0.256,0-0.512-0.098-0.707-0.293c-0.391-0.391-0.391-1.023,0-1.414l3.387-3.387L43.2,39.6
	c-0.332-0.441-0.242-1.068,0.2-1.399c0.44-0.332,1.068-0.243,1.399,0.2l3.521,4.693l-4.613,4.613C43.512,47.902,43.256,48,43,48z"/>
<path style="fill:#EDEDED;" d="M47,44h-3c-2.757,0-5-2.243-5-5V20c0-2.541-2.032-4.385-4.833-4.385C31.627,15.615,29,17.255,29,20
	c0,0.553-0.447,1-1,1s-1-0.447-1-1c0-3.58,3.148-6.385,7.167-6.385C38.063,13.615,41,16.36,41,20v19c0,1.654,1.346,3,3,3h3
	c0.553,0,1,0.447,1,1S47.553,44,47,44z"/>
<g>
</g>
<g>
</g>
<g>
</g>
<g>
</g>
<g>
</g>
<g>
</g>
<g>
</g>
<g>
</g>
<g>
</g>
<g>
</g>
<g>
</g>
<g>
</g>
<g>
</g>
<g>
</g>
<g>
</g>
</svg>
