<?xml version="1.0" encoding="iso-8859-1"?>
<!-- Generator: Adobe Illustrator 19.0.0, SVG Export Plug-In . SVG Version: 6.00 Build 0)  -->
<svg version="1.1" id="Capa_1" xmlns="http://www.w3.org/2000/svg" xmlns:xlink="http://www.w3.org/1999/xlink" x="0px" y="0px"
	 viewBox="0 0 56 56" style="enable-background:new 0 0 56 56;" xml:space="preserve">
<circle style="fill:#7A3726;" cx="28" cy="28" r="28"/>
<path style="fill:#EDEDED;" d="M28,47c-7.72,0-14-6.28-14-14s6.28-14,14-14s14,6.28,14,14S35.72,47,28,47z M28,21
	c-6.617,0-12,5.383-12,12s5.383,12,12,12s12-5.383,12-12S34.617,21,28,21z"/>
<path style="fill:#EDEDED;" d="M28,21c-1.613,0-3.041-1.111-4.961-3.031c-1.735-1.721-4.042-2.752-6.533-2.938
	c-1.02-0.075-1.981-0.31-2.787-0.528l-1.981-0.537c-0.533-0.145-0.848-0.693-0.704-1.227c0.145-0.532,0.691-0.85,1.227-0.703
	l1.981,0.537c0.715,0.193,1.56,0.4,2.413,0.464c2.965,0.223,5.719,1.457,7.757,3.478C26.213,18.314,27.208,19,28,19
	c0.792,0,1.787-0.686,3.547-2.445c0.126-0.126,0.264-0.258,0.415-0.396c1.987-1.819,4.624-2.93,7.424-3.127
	c0.796-0.057,1.589-0.25,2.19-0.413l2.163-0.584c0.534-0.151,1.082,0.17,1.227,0.704c0.144,0.533-0.171,1.082-0.704,1.226
	l-2.163,0.585c-0.689,0.187-1.604,0.409-2.572,0.477c-2.352,0.166-4.559,1.092-6.214,2.607c-0.127,0.116-0.245,0.229-0.351,0.335
	C31.042,19.889,29.614,21,28,21z"/>
<g>
</g>
<g>
</g>
<g>
</g>
<g>
</g>
<g>
</g>
<g>
</g>
<g>
</g>
<g>
</g>
<g>
</g>
<g>
</g>
<g>
</g>
<g>
</g>
<g>
</g>
<g>
</g>
<g>
</g>
</svg>
