<?xml version="1.0" encoding="iso-8859-1"?>
<!-- Generator: Adobe Illustrator 19.0.0, SVG Export Plug-In . SVG Version: 6.00 Build 0)  -->
<svg version="1.1" id="Capa_1" xmlns="http://www.w3.org/2000/svg" xmlns:xlink="http://www.w3.org/1999/xlink" x="0px" y="0px"
	 viewBox="0 0 56 56" style="enable-background:new 0 0 56 56;" xml:space="preserve">
<circle style="fill:#4FBA6F;" cx="28" cy="28" r="28"/>
<path style="fill:#EDEDED;" d="M16,42c-0.553,0-1-0.447-1-1V22c0-2.541-2.032-4.385-4.833-4.385C7.627,17.615,5,19.255,5,22
	c0,0.553-0.447,1-1,1s-1-0.447-1-1c0-3.58,3.148-6.385,7.167-6.385C14.062,15.615,17,18.36,17,22v19C17,41.553,16.553,42,16,42z"/>
<path style="fill:#EDEDED;" d="M28,42c-0.553,0-1-0.447-1-1V22c0-2.541-2.032-4.385-4.833-4.385C19.627,17.615,17,19.255,17,22
	c0,0.553-0.447,1-1,1s-1-0.447-1-1c0-3.58,3.148-6.385,7.167-6.385C26.062,15.615,29,18.36,29,22v19C29,41.553,28.553,42,28,42z"/>
<path style="fill:#EDEDED;" d="M34.001,46c-0.357,0-0.703-0.192-0.884-0.529c-0.26-0.488-0.075-1.094,0.412-1.354
	c17.374-9.257,16.339-14.25,15.721-17.232c-0.342-1.649-1.401-3.097-2.833-3.871c-1.032-0.558-1.953-0.684-2.813-0.382
	c-1.722,0.602-2.675,2.739-2.684,2.761c-0.216,0.509-0.804,0.745-1.313,0.527c-0.508-0.217-0.744-0.804-0.527-1.313
	c0.052-0.12,1.29-2.965,3.863-3.864c1.402-0.491,2.891-0.317,4.425,0.511c1.973,1.067,3.373,2.972,3.841,5.225
	c0.946,4.568,0.512,10.212-16.738,19.404C34.32,45.962,34.159,46,34.001,46z"/>
<path style="fill:#EDEDED;" d="M44,46c-2.757,0-5-2.243-5-5V22c0-2.541-2.032-4.385-4.833-4.385C31.627,17.615,29,19.255,29,22
	c0,0.553-0.447,1-1,1s-1-0.447-1-1c0-3.58,3.148-6.385,7.167-6.385C38.062,15.615,41,18.36,41,22v19c0,1.654,1.346,3,3,3
	c0.553,0,1,0.447,1,1S44.553,46,44,46z"/>
<g>
</g>
<g>
</g>
<g>
</g>
<g>
</g>
<g>
</g>
<g>
</g>
<g>
</g>
<g>
</g>
<g>
</g>
<g>
</g>
<g>
</g>
<g>
</g>
<g>
</g>
<g>
</g>
<g>
</g>
</svg>
